<?xml version="1.0" standalone="no"?>
<!DOCTYPE svg PUBLIC "-//W3C//DTD SVG 20010904//EN"
 "http://www.w3.org/TR/2001/REC-SVG-20010904/DTD/svg10.dtd">
<svg version="1.0" xmlns="http://www.w3.org/2000/svg"
 width="512.000000pt" height="512.000000pt" viewBox="0 0 512.000000 512.000000"
 preserveAspectRatio="xMidYMid meet">
<metadata>
Created by potrace 1.14, written by Peter Selinger 2001-2017
</metadata>
<g transform="translate(0.000000,512.000000) scale(0.100000,-0.100000)"
fill="#000000" stroke="none">
<path d="M991 3895 c-10 -5 -16 -16 -13 -24 2 -8 0 -11 -5 -8 -5 3 -9 -2 -10
-11 -1 -25 -36 -116 -48 -124 -5 -4 -6 -8 -1 -8 5 0 3 -7 -4 -15 -7 -8 -10
-15 -6 -15 4 0 -1 -15 -11 -32 -9 -18 -16 -39 -15 -45 2 -7 -2 -13 -8 -13 -5
0 -9 -3 -8 -7 2 -9 -21 -82 -31 -98 -6 -10 -7 -16 -10 -36 0 -5 -5 -8 -9 -5
-4 2 -9 -4 -10 -15 -4 -43 -6 -49 -14 -49 -4 0 -7 -3 -7 -7 1 -5 0 -10 -1 -13
-1 -3 -3 -14 -5 -25 -2 -11 -8 -21 -14 -23 -5 -2 -7 -10 -4 -18 3 -8 0 -14 -6
-14 -6 0 -10 -3 -9 -7 3 -17 -15 -63 -26 -63 -6 0 -4 -5 4 -10 11 -7 11 -10 2
-10 -7 0 -10 -4 -7 -10 3 -5 1 -10 -5 -10 -6 0 -9 -4 -5 -9 3 -5 1 -12 -5 -16
-6 -4 -8 -11 -5 -16 4 -5 1 -9 -4 -9 -6 0 -10 -3 -9 -7 0 -5 -2 -16 -5 -25 -4
-10 -10 -26 -14 -35 -3 -10 -7 -22 -7 -26 -1 -4 -8 -12 -16 -17 -12 -8 -12
-10 -1 -10 9 0 10 -4 4 -12 -6 -7 -13 -26 -17 -41 -4 -15 -11 -25 -15 -22 -5
3 -7 -5 -3 -17 4 -16 2 -19 -8 -13 -8 5 -11 4 -6 -3 3 -6 1 -23 -6 -39 -6 -15
-12 -32 -13 -38 0 -5 -6 -9 -11 -8 -7 1 -9 -8 -6 -22 2 -14 0 -25 -6 -25 -6 0
-9 -8 -8 -17 2 -10 -3 -24 -11 -31 -7 -8 -11 -18 -8 -23 4 -5 1 -9 -4 -9 -6 0
-10 -3 -10 -7 4 -23 -2 -43 -11 -38 -7 4 -9 -3 -6 -19 3 -14 0 -26 -5 -26 -6
0 -8 -4 -4 -9 3 -5 1 -12 -5 -16 -6 -4 -8 -11 -5 -16 4 -5 2 -9 -3 -9 -5 0
-12 -14 -16 -31 -3 -17 -10 -28 -15 -25 -5 3 -9 0 -8 -7 1 -39 -4 -58 -15 -51
-7 4 -8 3 -4 -5 4 -6 2 -18 -4 -26 -7 -8 -9 -15 -5 -15 4 0 2 -7 -5 -15 -7 -8
-9 -15 -4 -15 4 0 3 -5 -4 -12 -7 -7 -12 -20 -12 -31 0 -10 -4 -16 -9 -13 -5
4 -7 -4 -3 -16 3 -12 1 -19 -4 -15 -6 3 -11 -4 -11 -16 -1 -12 -7 -23 -13 -25
-5 -2 -8 -7 -5 -12 8 -13 -16 -70 -28 -63 -6 3 -7 1 -3 -6 9 -14 -12 -83 -24
-76 -4 3 -8 -1 -7 -8 1 -34 -4 -58 -11 -53 -4 2 -9 -5 -9 -17 -1 -12 -6 -23
-11 -25 -6 -2 -8 -11 -5 -21 2 -10 -1 -24 -9 -32 -7 -8 -14 -19 -15 -24 -1 -6
-5 -23 -8 -38 -6 -22 -4 -27 11 -27 11 -1 124 -1 253 -1 217 -1 235 1 245 18
6 10 11 24 12 32 2 8 9 18 16 22 10 7 10 9 -2 9 -10 0 -11 3 -4 8 11 7 29 60
25 76 -1 5 6 5 16 2 14 -6 15 -5 6 5 -9 9 -8 19 5 43 18 34 19 37 21 65 0 11
7 26 14 33 11 12 16 29 19 66 1 7 8 10 16 7 13 -5 13 -3 1 11 -11 14 -11 18 1
28 14 10 19 25 22 64 1 6 5 12 10 12 4 0 8 3 7 8 -1 4 2 16 6 28 6 20 11 20
308 20 234 -1 301 -4 300 -14 -2 -6 2 -12 8 -12 6 0 9 -9 6 -20 -3 -11 -1 -18
4 -14 8 5 10 0 13 -38 1 -7 7 -19 14 -27 7 -7 11 -20 8 -28 -3 -7 0 -16 8 -19
7 -3 13 -11 14 -19 1 -8 3 -22 4 -30 1 -8 5 -15 10 -15 5 0 6 -5 3 -10 -3 -6
-1 -10 5 -10 6 0 8 -5 5 -10 -4 -6 -1 -17 5 -25 7 -8 9 -15 5 -15 -5 0 0 -10
11 -22 13 -14 14 -19 4 -14 -13 7 -13 6 0 -6 8 -7 16 -21 18 -32 2 -10 8 -30
14 -45 6 -14 12 -28 12 -31 1 -3 9 -26 19 -52 l19 -48 51 -1 c81 -1 578 -1
615 0 l33 1 -4 48 c-3 26 0 55 5 65 6 11 5 17 -2 17 -6 0 -8 5 -3 13 11 17 13
37 3 37 -8 0 -5 43 5 59 3 6 1 11 -5 11 -6 0 -8 5 -3 13 11 17 13 37 3 37 -8
0 -5 43 5 59 3 6 1 11 -5 11 -6 0 -8 5 -4 12 9 14 12 58 4 58 -3 0 -5 29 -5
65 0 37 4 65 10 65 6 0 3 5 -5 10 -9 6 -10 10 -3 10 8 0 9 9 3 30 -6 20 -5 30
2 30 7 0 6 5 -1 14 -8 10 -9 16 -1 21 6 3 8 11 4 16 -3 5 0 16 6 25 10 11 16
12 26 3 11 -9 14 -9 14 0 0 8 6 9 18 3 17 -9 70 -7 80 2 3 3 11 1 19 -5 10 -9
13 -8 13 1 0 10 3 10 15 0 8 -7 15 -8 15 -3 0 10 47 9 57 -1 3 -2 16 -1 29 4
16 7 24 6 24 -1 0 -8 4 -8 13 0 10 8 17 7 25 -1 9 -9 12 -9 12 1 0 11 3 11 15
1 8 -7 15 -9 15 -4 0 8 64 15 152 17 15 1 25 4 22 8 -2 5 4 8 13 8 28 -1 65 7
96 20 15 6 31 10 35 9 4 0 25 7 47 17 22 10 43 18 48 17 4 -1 7 2 7 8 0 5 5
10 10 10 6 0 21 9 33 20 12 11 27 18 35 15 7 -3 10 0 7 6 -4 6 2 13 13 16 11
3 23 12 26 20 3 8 11 11 17 7 7 -4 9 -3 6 3 -4 6 4 19 18 29 13 10 22 21 19
25 -2 4 3 9 11 13 8 3 15 1 15 -4 0 -6 7 -10 15 -10 8 0 15 -5 15 -10 0 -6 6
-9 13 -8 6 2 11 -2 10 -9 -2 -7 4 -10 12 -7 8 4 15 1 15 -6 0 -6 4 -8 10 -5 6
3 10 1 10 -6 0 -7 3 -9 6 -6 4 3 16 1 28 -5 11 -7 27 -13 35 -14 8 -2 18 -9
22 -16 5 -7 9 -10 9 -6 0 4 16 0 35 -8 19 -8 37 -14 40 -14 24 -1 64 -14 60
-20 -2 -4 7 -5 20 -2 14 2 25 0 25 -6 0 -5 12 -10 28 -11 15 0 37 0 50 -1 13
0 21 -3 18 -8 -4 -6 21 -10 77 -13 9 0 17 -5 17 -10 0 -6 4 -8 8 -5 5 3 26 0
48 -6 21 -6 42 -11 47 -10 4 1 7 -2 7 -7 0 -5 9 -7 20 -4 11 3 20 1 20 -4 0
-5 12 -10 28 -11 15 -1 29 -7 30 -12 2 -6 8 -8 13 -4 5 3 9 0 9 -6 0 -6 4 -9
9 -5 9 5 76 -29 96 -50 20 -20 35 -64 24 -71 -8 -5 -8 -8 0 -13 12 -8 -5 -67
-26 -89 -7 -7 -13 -17 -13 -22 0 -5 -7 -7 -15 -3 -10 3 -15 0 -13 -8 2 -8 -3
-13 -9 -12 -7 2 -13 -2 -13 -7 0 -5 -3 -9 -7 -8 -5 1 -19 -4 -31 -11 -13 -7
-26 -10 -29 -7 -4 3 -12 1 -20 -6 -19 -16 -295 -14 -310 2 -4 4 -21 7 -41 9
-10 0 -27 9 -38 19 -11 9 -26 18 -33 20 -24 5 -61 34 -55 43 3 5 2 8 -3 7 -4
-2 -9 1 -10 6 -1 5 -6 12 -11 15 -5 3 -19 22 -30 42 -16 28 -18 39 -9 49 9 9
9 11 -3 8 -11 -2 -14 7 -14 40 0 23 -4 42 -8 42 -5 0 -4 8 1 18 6 12 5 23 -5
36 -7 10 -12 22 -10 25 7 10 -59 7 -66 -4 -5 -7 -8 -7 -8 0 0 6 -17 9 -37 8
-47 -4 -63 -4 -136 -1 -31 2 -59 -1 -61 -7 -3 -7 -5 -7 -5 0 -1 11 -72 12 -90
1 -6 -4 -11 -2 -11 3 0 17 -18 13 -38 -7 -13 -13 -18 -30 -16 -57 2 -21 5 -40
8 -42 2 -2 0 -19 -4 -38 -4 -19 -5 -33 -1 -30 4 2 9 -10 9 -28 2 -31 9 -72 12
-72 2 0 9 -37 12 -62 1 -7 5 -13 9 -13 4 0 6 -9 4 -19 -2 -11 3 -22 12 -25 13
-5 13 -9 2 -23 -8 -9 -9 -14 -3 -10 7 4 21 -13 35 -41 23 -45 30 -55 76 -106
12 -13 20 -26 17 -28 -2 -3 7 -11 21 -18 14 -7 25 -19 25 -27 0 -7 4 -13 8
-13 5 0 22 -11 38 -25 16 -14 33 -25 37 -25 5 0 6 -4 3 -8 -2 -4 5 -9 17 -9
12 -1 27 -9 33 -18 11 -14 27 -21 57 -24 5 -1 5 -6 1 -13 -4 -6 -3 -8 3 -5 9
6 28 1 108 -29 11 -4 23 -8 28 -9 4 -2 10 -4 15 -5 4 -1 17 -1 30 0 12 1 22
-3 22 -8 0 -5 13 -8 30 -6 16 2 32 0 35 -5 3 -5 14 -7 24 -4 10 3 22 0 26 -7
5 -8 10 -8 21 1 11 9 14 9 14 -1 0 -10 3 -10 15 0 8 7 15 9 15 4 0 -10 169 -9
209 0 14 3 31 0 40 -7 9 -7 12 -8 8 -1 -8 13 67 29 85 18 7 -5 8 -2 3 6 -6 10
-1 12 18 8 15 -3 24 -1 21 3 -5 8 1 10 39 13 6 1 18 7 25 14 7 6 20 12 28 12
8 0 26 7 39 16 14 9 25 12 25 8 0 -5 6 -2 13 6 19 24 64 43 79 34 10 -6 10 -5
-1 9 -9 12 -10 17 -2 17 7 0 22 9 34 20 12 11 27 18 35 15 7 -3 10 0 7 6 -8
12 14 41 26 33 5 -3 9 0 9 6 0 19 47 70 56 62 5 -4 6 -3 2 2 -10 12 10 48 22
41 6 -3 7 1 4 9 -3 9 -1 16 6 16 6 0 9 4 5 9 -3 5 1 15 8 23 7 7 14 16 14 21
5 37 16 67 25 67 7 0 6 5 -1 14 -9 10 -9 15 -1 18 7 2 12 27 13 56 1 29 5 52
10 52 4 0 6 4 2 9 -3 5 -6 32 -6 60 -1 30 -6 51 -13 51 -7 0 -7 3 -1 8 13 9
18 32 6 32 -4 0 -8 12 -7 28 1 15 -5 33 -11 40 -7 7 -13 22 -13 32 0 10 -5 22
-11 25 -6 4 -8 13 -5 21 3 8 1 14 -3 14 -5 0 -18 15 -30 33 -48 74 -61 91 -61
82 0 -5 -14 5 -30 24 -17 18 -30 31 -30 27 0 -6 -29 15 -61 46 -9 9 -27 19
-38 23 -12 3 -19 10 -17 14 3 4 -7 8 -22 9 -14 1 -28 6 -31 11 -3 4 -18 11
-33 15 -16 3 -28 11 -28 16 0 5 -7 7 -15 4 -8 -3 -20 -2 -27 2 -7 5 -22 10
-33 11 -11 2 -24 8 -29 13 -4 4 -15 6 -22 3 -8 -3 -14 0 -14 5 0 6 -9 9 -20 7
-11 -2 -20 0 -20 4 0 5 -12 9 -27 9 -15 0 -29 4 -30 9 -2 5 -17 8 -33 7 -17
-1 -30 2 -30 6 0 4 -9 6 -20 3 -11 -3 -20 -1 -20 4 0 5 -14 10 -31 11 -18 1
-37 6 -43 9 -6 4 -20 9 -31 10 -10 2 -23 9 -27 16 -6 9 -8 9 -8 0 0 -9 -7 -10
-22 -4 -13 5 -26 9 -30 10 -5 0 -10 2 -13 2 -3 1 -9 3 -15 4 -5 1 -15 3 -21 4
-5 0 -7 5 -4 11 3 5 0 7 -9 4 -8 -3 -21 -2 -28 2 -7 5 -20 9 -28 11 -8 1 -20
9 -26 18 -7 9 -16 16 -21 17 -4 0 -7 4 -5 9 1 5 -2 9 -8 9 -5 0 -10 16 -10 35
0 19 5 35 11 35 5 0 7 4 4 10 -9 14 43 67 73 76 34 9 33 9 55 19 10 4 38 8 63
9 24 0 44 3 44 6 0 3 21 4 48 2 59 -3 74 -5 91 -16 10 -7 12 -6 6 4 -10 16 43
7 88 -15 17 -8 34 -15 38 -15 16 0 48 -33 42 -43 -3 -6 -1 -7 4 -4 6 4 18 -4
27 -18 9 -14 13 -25 9 -25 -5 0 -3 -4 3 -8 15 -9 29 -84 33 -171 0 -13 4 -22
7 -19 3 4 19 2 35 -2 16 -5 31 -5 34 0 3 5 16 5 30 0 17 -6 25 -6 25 1 0 6 5
7 10 4 16 -10 120 -12 120 -2 0 4 8 3 18 -2 10 -5 24 -6 32 -1 7 4 24 4 37 -1
15 -5 23 -5 23 2 0 6 5 7 11 4 14 -9 88 -12 83 -4 -2 4 3 9 11 13 11 4 13 11
6 29 -6 16 -6 28 2 36 7 7 8 11 0 11 -6 0 -9 13 -7 30 2 19 -1 30 -9 30 -8 0
-8 3 -2 8 9 6 12 26 5 35 -2 2 -8 51 -11 87 -1 8 -5 20 -9 25 -7 10 -21 60
-20 71 1 3 -7 12 -17 21 -10 8 -11 11 -3 7 10 -5 9 0 -4 14 -11 12 -16 22 -12
22 4 0 0 7 -8 16 -9 8 -13 20 -10 26 4 7 2 8 -4 4 -6 -4 -16 4 -23 16 -7 13
-20 30 -30 39 -10 9 -16 19 -12 23 3 3 1 6 -6 6 -7 0 -26 13 -42 30 -16 16
-52 41 -79 56 -27 15 -47 31 -43 37 3 6 1 7 -4 4 -6 -4 -24 0 -39 8 -16 8 -35
15 -42 15 -7 0 -11 4 -8 9 4 5 -3 7 -14 4 -11 -3 -20 0 -20 6 0 6 -7 8 -17 4
-10 -4 -14 -2 -10 4 4 6 -3 9 -18 7 -14 -1 -25 1 -25 5 0 7 -15 11 -53 12 -10
0 -15 5 -11 12 5 9 4 9 -6 0 -8 -8 -20 -9 -36 -3 -13 5 -24 6 -24 2 0 -4 -5 0
-10 8 -5 8 -10 11 -10 5 0 -6 -21 -9 -50 -7 -34 3 -48 8 -43 15 5 9 3 9 -8 1
-13 -10 -58 -14 -201 -18 -27 0 -48 -5 -48 -10 0 -5 -3 -6 -6 -3 -4 3 -14 2
-24 -3 -9 -5 -30 -12 -46 -15 -44 -9 -37 -7 -131 -47 -16 -6 -31 -11 -35 -10
-5 1 -8 -3 -8 -9 0 -5 -13 -15 -30 -20 -17 -6 -27 -16 -23 -22 4 -7 0 -8 -11
-4 -9 4 -15 3 -12 -2 6 -9 -22 -26 -36 -23 -5 1 -8 -5 -8 -14 0 -8 -5 -12 -10
-9 -6 4 -7 11 -4 17 4 6 2 8 -4 5 -5 -4 -26 8 -45 25 -45 44 -70 62 -88 66 -8
2 -16 8 -17 13 -2 5 -8 7 -13 3 -5 -3 -9 0 -9 7 0 7 -3 9 -6 6 -4 -3 -16 -1
-27 4 -11 6 -34 13 -51 16 -17 3 -38 9 -47 14 -9 4 -19 6 -22 3 -3 -3 -12 -2
-19 2 -13 8 -33 12 -98 16 -19 2 -41 7 -49 12 -9 6 -12 5 -8 -1 6 -10 -48 -12
-57 -2 -6 6 -882 2 -899 -4 -12 -4 -14 -70 -13 -425 1 -248 -3 -418 -8 -415
-5 4 -6 1 -2 -6 13 -20 14 -121 2 -121 -7 0 -8 -3 -1 -8 14 -10 14 -105 1
-114 -7 -5 -7 -8 -1 -8 12 0 12 -137 0 -148 -5 -4 -5 -2 -2 5 4 6 3 13 -3 15
-6 2 -12 12 -14 23 -3 11 -18 51 -35 90 -16 38 -27 74 -24 79 3 5 1 6 -5 2 -8
-5 -12 2 -12 18 0 14 -4 26 -8 26 -4 0 -13 14 -20 32 -9 25 -9 34 1 40 8 5 7
8 -5 8 -10 0 -19 5 -19 10 -3 20 -4 25 -12 38 -5 6 -5 12 0 12 4 0 2 4 -5 9
-8 5 -15 20 -15 34 -1 14 -5 23 -9 20 -5 -2 -8 5 -8 16 0 12 -5 21 -12 21 -6
0 -9 3 -5 6 3 4 0 19 -8 34 -8 15 -11 30 -8 34 4 3 1 6 -5 6 -7 0 -11 3 -10 8
1 4 -3 17 -10 30 -7 12 -11 22 -8 22 3 0 -1 12 -9 27 -8 15 -11 31 -8 36 3 6
1 7 -4 4 -12 -8 -26 20 -17 34 3 5 -2 16 -10 25 -9 9 -14 20 -11 25 4 5 3 9
-2 9 -8 0 -33 62 -35 88 -1 6 -4 12 -8 12 -7 0 -30 67 -29 84 0 5 -4 12 -10
15 -6 4 -12 16 -14 27 -1 12 -10 32 -18 45 -9 13 -19 37 -23 53 -4 16 -16 48
-27 70 -10 22 -19 45 -19 50 0 14 -404 15 -429 1z m1479 -458 c0 -8 4 -7 9 2
7 12 13 12 24 3 7 -7 17 -9 21 -5 12 12 126 12 119 0 -4 -6 -1 -7 8 -1 20 13
120 14 112 1 -4 -6 -1 -7 8 -1 18 11 31 12 44 3 6 -4 17 -4 25 1 7 4 23 5 34
1 12 -5 29 -7 38 -6 10 2 20 0 23 -5 3 -4 14 -6 25 -3 12 3 20 0 20 -6 0 -7 4
-10 8 -7 8 5 49 -35 43 -43 -1 -2 1 -7 6 -10 5 -3 14 -19 21 -34 10 -23 10
-27 0 -21 -9 6 -9 3 1 -9 7 -9 10 -17 5 -17 -5 0 -2 -5 6 -10 13 -8 13 -10 1
-10 -11 0 -12 -3 -4 -11 14 -14 5 -51 -11 -42 -7 4 -6 1 2 -9 10 -12 9 -22 -2
-49 -22 -53 -54 -89 -73 -82 -11 4 -14 3 -9 -5 7 -12 3 -14 -31 -15 -10 -1
-20 -4 -23 -8 -8 -11 -74 -14 -89 -5 -9 6 -12 5 -8 -1 4 -7 -8 -12 -33 -15
-22 -2 -40 0 -40 4 0 11 -23 5 -32 -7 -5 -7 -8 -7 -8 0 0 6 -52 9 -137 9 -134
-2 -171 5 -156 30 11 16 12 36 3 36 -8 0 -5 43 5 59 3 6 1 11 -5 11 -6 0 -8 5
-4 12 9 14 12 58 4 58 -8 0 -5 144 4 158 4 7 3 12 -3 12 -7 0 -7 7 0 23 11 24
49 35 49 14z m-1265 -257 c-3 -5 -1 -10 5 -10 7 0 9 -7 6 -16 -3 -8 -2 -12 4
-9 6 3 11 1 11 -4 1 -6 2 -14 3 -18 2 -13 37 -106 53 -141 8 -18 12 -40 9 -48
-3 -9 -1 -12 4 -9 6 3 10 -1 10 -9 0 -9 5 -16 12 -16 6 0 9 -3 5 -6 -3 -4 0
-21 7 -39 l14 -33 -30 2 c-16 1 -31 -1 -34 -6 -3 -5 -10 -5 -16 -2 -16 10
-121 11 -135 1 -6 -4 -14 -3 -18 3 -5 8 -11 8 -21 -1 -25 -20 -26 14 -4 72 12
30 25 58 30 64 4 5 6 18 5 28 -2 9 1 17 6 17 5 0 8 3 8 8 -4 21 2 32 14 26 8
-5 8 -2 -2 9 -9 12 -10 17 -2 17 7 0 9 5 6 10 -3 6 -1 10 5 10 6 0 8 5 5 10
-3 6 -2 10 3 10 5 0 9 6 10 13 2 35 17 77 28 77 3 0 2 -4 -1 -10z"/>
</g>
</svg>
